# xmcd
#
# Track frame offsets: 
#        150
#        15575
#        34123
#        50577
#        68415
#        83204
#        101500
#        114221
#        133378
#        148667
#        166938
#        182981
#        198329
#        216998
#        238312
#        254428
#        275161
#        289259
#
# Disc length: 4095 seconds
#
# Revision: 0
# Processed by: cddbd v1.5.2PL0 Copyright (c) Steve Scherf et al.
# Submitted via: ExactAudioCopy v0.95b4
#
DISCID=150ffd12
DTITLE=Various Artist - Country's Got More Heart
DYEAR=2006
DGENRE=Country
TTITLE0=She's Got It All (kenny Chesney)
TTITLE1=How Your Love Makes Me Feel (Diamond Rio)
TTITLE2=Now That I Found You (Terri Clark)
TTITLE3=Loving Blind (Clint Black)
TTITLE4=Wrong Again (Martina McBride)
TTITLE5=I Miss My Friend (Darryl Worley)
TTITLE6=Blue (LeAnn Rimes)
TTITLE7=I'm Already There (Lonestar)
TTITLE8=If You Ever Stop Loving Me (Montgomery Gentry)
TTITLE9=Perfect (Sara Evans)
TTITLE10=In a Real Love (Phil Vassar)
TTITLE11=We Dance Anyway (Deana Carter)
TTITLE12=I'll Think of Something (Mark Chesnutt)
TTITLE13=He Didn't Have to Be (Brad Paisley)
TTITLE14=Forever's as far as I'll Go (Alabama)
TTITLE15=Lonely Too Long (Patty Loveless) 
TTITLE16=Forever Together (Randy Travis)
TTITLE17=Loot at Us (vince Gill)
EXTD=
EXTT0=
EXTT1=
EXTT2=
EXTT3=
EXTT4=
EXTT5=
EXTT6=
EXTT7=
EXTT8=
EXTT9=
EXTT10=
EXTT11=
EXTT12=
EXTT13=
EXTT14=
EXTT15=
EXTT16=
EXTT17=
PLAYORDER=
